<svg width="41" height="40" viewBox="0 0 41 40" xmlns="http://www.w3.org/2000/svg">
  <path d="M21 1c10.493 0 19 8.507 19 19s-8.507 19-19 19S2 30.493 2 20 10.507 1 21 1zm5.327 7.212c-4.296-.99-7.934 1.585-8.596 5.827-.14.89-.223 1.798-.27 2.706-1.001.034-1.992.102-2.953.218a.294.294 0 00-.193.091.29.29 0 00-.155.174c-.237.793-.145 1.745-.13 2.566.004.382-.078.99.27 1.222.01.112.082.208.227.232.942.136 1.9.232 2.86.295v.595c-.014 3.16-.106 6.455.44 9.577.034.198.218.246.368.198.609.106 2.433-.198 2.805-.45.372-.251.311.537.906.348.029-.01.053-.029.077-.043.179.033.377-.058.382-.305.033-3.15-.102-6.296-.02-9.451.005-.106.005-.222.005-.338 1.18-.01 2.353-.03 3.513-.044.324-.01.454-.29.41-.531.349-.411.286-.996.276-1.513-.014-.657-.019-1.362-.212-1.99a.32.32 0 00-.136-.184.362.362 0 00-.338-.314 118.242 118.242 0 00-3.343-.251c.309-2.412 1.174-4.552 3.551-4.238.333.043.237-.391.203-.681.275-.342.6-2.006.652-3.069.01-.212-.12-.323-.275-.357a.433.433 0 00-.324-.29z" fill="#ffffff" fill-rule="evenodd"/>
</svg>
