<svg width="40" height="40" viewBox="0 0 40 40" xmlns="http://www.w3.org/2000/svg">
  <path d="M20 1c10.493 0 19 8.507 19 19s-8.507 19-19 19S1 30.493 1 20 9.507 1 20 1zm5.885 7.693C22.13 8.21 8.589 6.612 8.522 13.063a.457.457 0 00-.074.194c-.49 4.31-.81 10.034.32 14.263.713 2.676 2.735 3.449 5.314 3.82 3.857.565 9.432.989 13.215-.282 2.877-.966 3.374-3.122 3.486-5.91.2-5.068 2.319-15.526-4.898-16.455zm-11.662 6.57c3.084-3.411 8.822-3.032 11.364.818 2.067 3.13 1.234 7.284-1.605 9.61-3.181 2.602-7.611 1.561-10.183-1.308a.53.53 0 00-.245-.17c-1.583-2.75-1.435-6.623.669-8.95zm7.879 9.068c5.15-3.151-.9-11.713-5.144-7.915-1.501.884-2.088 3.285-1.501 4.942.9 2.528 4.095 4.534 6.645 2.973zm3.389-12.955c1.19-1.092 3.404-.528 3.389 1.249-.015 1.338-1.74 2.416-2.891 1.605-.49-.356-.87-.98-.989-1.612.022-.491.171-.944.49-1.242z" fill="#ffffff" fill-rule="evenodd"/>
</svg>
