<svg width="40" height="40" viewBox="0 0 40 40" xmlns="http://www.w3.org/2000/svg">
  <path d="M20 1c10.493 0 19 8.507 19 19s-8.507 19-19 19S1 30.493 1 20 9.507 1 20 1zm5.236 8.174c-3.902-2.11-8.99-1.347-11.892 2.062-1.735 2.034-3.565 7.112-1.261 9.365.142.256.806-.438 1.029-.267.531.398.905 1.371 1.346.798a.97.97 0 00.166-.328c.176-.592-.156-1.35-.436-1.977-.251-1.669-.29-3.338.669-4.86 1.394-2.219 4.177-2.617 6.524-1.906 3.238.986 4.542 4.04 3.969 6.833-.1.355-.2.71-.313 1.052a6.413 6.413 0 01-1.09 1.821c-.21.18-.451.341-.736.465-.863.38-1.792.384-2.646-.062-.327-.166-.568-.394-.862-.56.673-2.09 1.28-4.461.715-6.254-.474-1.507-2.029-1.64-3.2-.753-1.427 1.085-1.546 2.892-.906 4.4-.275.626-.512 1.27-.72 1.93-1.09 3.404-1.361 7.145-1.214 10.63.014.299.345.02.582.03.132.08.2.515.328.368 1.702-1.982 2.556-4.537 3.329-7.017 3.68 1.916 8.781-.45 10.37-4.135 1.744-4.044.156-9.525-3.751-11.635z" fill="#ffffff" fill-rule="evenodd"/>
</svg>
