<svg width="40" height="40" viewBox="0 0 40 40" xmlns="http://www.w3.org/2000/svg">
  <path d="M20 1c10.493 0 19 8.507 19 19s-8.507 19-19 19S1 30.493 1 20 9.507 1 20 1zm7.185 10.445c-1.09-1.365-3.267-1.778-4.889-1.175-1.953.73-3.442 2.958-3.172 5.054-3.063-.512-5.927-1.584-8.193-3.812-.29-.284-.858-.18-.948.251-.394 1.878-.247 3.59.46 5.287a3.868 3.868 0 01-.683-.199c-.384-.123-.858.29-.697.697a16.056 16.056 0 002.356 4.125c-.388.08-.787.114-1.194.095-.498.014-.745.612-.403.967.952 1 1.977 1.835 3.115 2.565-.46.18-.925.351-1.432.432-1.01.166-2.034.033-3.044.156a.405.405 0 00-.261.157.38.38 0 00-.138.54.35.35 0 00.261.275c3.452 3.447 10.82 3.874 14.784 1.342 4.756-3.03 6.311-7.496 6.335-12.821.801-.55 1.55-1.238 2.304-1.84.356-.284.076-1-.389-.939-.644.08-1.29.195-1.915.38.308-.503.588-1.03.882-1.522.251-.422-.161-.84-.588-.768-.811.142-1.82.294-2.551.753z" fill="#ffffff" fill-rule="evenodd"/>
</svg>
