<svg width="40" height="40" viewBox="0 0 40 40" xmlns="http://www.w3.org/2000/svg">
  <path d="M20 1c10.493 0 19 8.507 19 19s-8.507 19-19 19S1 30.493 1 20 9.507 1 20 1zm.382 11l-2.022.016c-1.466.018-2.915.222-4.377.278-1.132.047-2.525-.302-3.61.037-1.542.474-1.853 1.917-2.006 3.356-.292 2.762-.501 5.737-.264 8.55-.367 2.919 1.643 3.815 4.622 3.954 5.264.242 10.62.023 15.888-.223 1.072-.046 2.117-.088 2.637-1.188.812-1.726.533-4.618.612-6.475.149-3.495.692-6.976-3.035-8.108a.512.512 0 00-.358-.14c-3.37-.018-6.739-.088-10.109-.041zm-3.558 4.04c.153.055.292.102.33.12a82.8 82.8 0 012.585 1.249c1.337.664 2.655 1.37 3.964 2.089-2.266 1.54-4.558 3.026-6.94 4.39.107-2.57.437-5.337.06-7.848z" fill="#ffffff" fill-rule="evenodd"/>
</svg>
